<svg width="593" height="982" viewBox="0 0 593 982" fill="none" xmlns="http://www.w3.org/2000/svg">
<path opacity="0.6" d="M196.5 -3.5H264.5V60.5C264.5 79.2777 249.278 94.5 230.5 94.5C211.722 94.5 196.5 79.2777 196.5 60.5V-3.5Z" fill="#469CF0" stroke="white"/>
<g opacity="0.6">
<path d="M379.5 113.5C358.513 113.5 341.5 96.4868 341.5 75.5C341.5 54.5132 358.513 37.5 379.5 37.5C400.487 37.5 417.5 54.5132 417.5 75.5C417.5 96.4868 400.487 113.5 379.5 113.5Z" fill="#469CF0" stroke="white"/>
<path d="M360 75.5C360 64.7304 368.73 56 379.5 56V56C390.27 56 399 64.7304 399 75.5V75.5C399 86.2696 390.27 95 379.5 95V95C368.73 95 360 86.2696 360 75.5V75.5Z" fill="white"/>
</g>
<path opacity="0.6" d="M50 -0.5C50 -11.2696 58.7304 -20 69.5 -20V-20C80.2696 -20 89 -11.2696 89 -0.5V-0.5C89 10.2696 80.2696 19 69.5 19V19C58.7304 19 50 10.2696 50 -0.5V-0.5Z" fill="white"/>
<g opacity="0.6">
<path d="M0 40.5C0 39.1193 1.11929 38 2.5 38V38C3.88071 38 5 39.1193 5 40.5V40.5C5 41.8807 3.88071 43 2.5 43V43C1.11929 43 0 41.8807 0 40.5V40.5Z" fill="white"/>
<path d="M19.9999 40.5C19.9999 39.1193 21.1192 38 22.4999 38V38C23.8807 38 24.9999 39.1193 24.9999 40.5V40.5C24.9999 41.8807 23.8807 43 22.4999 43V43C21.1192 43 19.9999 41.8807 19.9999 40.5V40.5Z" fill="white"/>
<path d="M40 40.5C40 39.1193 41.1193 38 42.5 38V38C43.8807 38 45 39.1193 45 40.5V40.5C45 41.8807 43.8807 43 42.5 43V43C41.1193 43 40 41.8807 40 40.5V40.5Z" fill="white"/>
<path d="M59.9999 40.5C59.9999 39.1193 61.1192 38 62.4999 38V38C63.8807 38 64.9999 39.1193 64.9999 40.5V40.5C64.9999 41.8807 63.8807 43 62.4999 43V43C61.1192 43 59.9999 41.8807 59.9999 40.5V40.5Z" fill="white"/>
<path d="M80 40.5C80 39.1193 81.1193 38 82.5 38V38C83.8807 38 85 39.1193 85 40.5V40.5C85 41.8807 83.8807 43 82.5 43V43C81.1193 43 80 41.8807 80 40.5V40.5Z" fill="white"/>
<path d="M0 60.5C0 59.1193 1.11929 58 2.5 58V58C3.88071 58 5 59.1193 5 60.5V60.5C5 61.8807 3.88071 63 2.5 63V63C1.11929 63 0 61.8807 0 60.5V60.5Z" fill="white"/>
<path d="M19.9999 60.5C19.9999 59.1193 21.1192 58 22.4999 58V58C23.8807 58 24.9999 59.1193 24.9999 60.5V60.5C24.9999 61.8807 23.8807 63 22.4999 63V63C21.1192 63 19.9999 61.8807 19.9999 60.5V60.5Z" fill="white"/>
<path d="M40 60.5C40 59.1193 41.1193 58 42.5 58V58C43.8807 58 45 59.1193 45 60.5V60.5C45 61.8807 43.8807 63 42.5 63V63C41.1193 63 40 61.8807 40 60.5V60.5Z" fill="white"/>
<path d="M59.9999 60.5C59.9999 59.1193 61.1192 58 62.4999 58V58C63.8807 58 64.9999 59.1193 64.9999 60.5V60.5C64.9999 61.8807 63.8807 63 62.4999 63V63C61.1192 63 59.9999 61.8807 59.9999 60.5V60.5Z" fill="white"/>
<path d="M80 60.5C80 59.1193 81.1193 58 82.5 58V58C83.8807 58 85 59.1193 85 60.5V60.5C85 61.8807 83.8807 63 82.5 63V63C81.1193 63 80 61.8807 80 60.5V60.5Z" fill="white"/>
<path d="M0 80.5C0 79.1193 1.11929 78 2.5 78V78C3.88071 78 5 79.1193 5 80.5V80.5C5 81.8807 3.88071 83 2.5 83V83C1.11929 83 0 81.8807 0 80.5V80.5Z" fill="white"/>
<path d="M19.9999 80.5C19.9999 79.1193 21.1192 78 22.4999 78V78C23.8807 78 24.9999 79.1193 24.9999 80.5V80.5C24.9999 81.8807 23.8807 83 22.4999 83V83C21.1192 83 19.9999 81.8807 19.9999 80.5V80.5Z" fill="white"/>
<path d="M40 80.5C40 79.1193 41.1193 78 42.5 78V78C43.8807 78 45 79.1193 45 80.5V80.5C45 81.8807 43.8807 83 42.5 83V83C41.1193 83 40 81.8807 40 80.5V80.5Z" fill="white"/>
<path d="M59.9999 80.5C59.9999 79.1193 61.1192 78 62.4999 78V78C63.8807 78 64.9999 79.1193 64.9999 80.5V80.5C64.9999 81.8807 63.8807 83 62.4999 83V83C61.1192 83 59.9999 81.8807 59.9999 80.5V80.5Z" fill="white"/>
<path d="M80 80.5C80 79.1193 81.1193 78 82.5 78V78C83.8807 78 85 79.1193 85 80.5V80.5C85 81.8807 83.8807 83 82.5 83V83C81.1193 83 80 81.8807 80 80.5V80.5Z" fill="white"/>
<path d="M0 100.5C0 99.119 1.11929 97.9998 2.5 97.9998V97.9998C3.88071 97.9998 5 99.119 5 100.5V100.5C5 101.88 3.88071 103 2.5 103V103C1.11929 103 0 101.88 0 100.5V100.5Z" fill="white"/>
<path d="M19.9999 100.5C19.9999 99.119 21.1192 97.9998 22.4999 97.9998V97.9998C23.8807 97.9998 24.9999 99.119 24.9999 100.5V100.5C24.9999 101.88 23.8807 103 22.4999 103V103C21.1192 103 19.9999 101.88 19.9999 100.5V100.5Z" fill="white"/>
<path d="M40 100.5C40 99.119 41.1193 97.9998 42.5 97.9998V97.9998C43.8807 97.9998 45 99.119 45 100.5V100.5C45 101.88 43.8807 103 42.5 103V103C41.1193 103 40 101.88 40 100.5V100.5Z" fill="white"/>
<path d="M59.9999 100.5C59.9999 99.119 61.1192 97.9998 62.4999 97.9998V97.9998C63.8807 97.9998 64.9999 99.119 64.9999 100.5V100.5C64.9999 101.88 63.8807 103 62.4999 103V103C61.1192 103 59.9999 101.88 59.9999 100.5V100.5Z" fill="white"/>
<path d="M80 100.5C80 99.119 81.1193 97.9998 82.5 97.9998V97.9998C83.8807 97.9998 85 99.119 85 100.5V100.5C85 101.88 83.8807 103 82.5 103V103C81.1193 103 80 101.88 80 100.5V100.5Z" fill="white"/>
</g>
<g opacity="0.6">
<path d="M0 902.559C0 901.503 0.855926 900.647 1.91176 900.647V900.647C2.9676 900.647 3.82353 901.503 3.82353 902.559V902.559C3.82353 903.615 2.9676 904.471 1.91176 904.471V904.471C0.855926 904.471 0 903.615 0 902.559V902.559Z" fill="white"/>
<path d="M15.2941 902.559C15.2941 901.503 16.15 900.647 17.2058 900.647V900.647C18.2617 900.647 19.1176 901.503 19.1176 902.559V902.559C19.1176 903.615 18.2617 904.471 17.2058 904.471V904.471C16.15 904.471 15.2941 903.615 15.2941 902.559V902.559Z" fill="white"/>
<path d="M30.5883 902.559C30.5883 901.503 31.4442 900.647 32.5 900.647V900.647C33.5559 900.647 34.4118 901.503 34.4118 902.559V902.559C34.4118 903.615 33.5559 904.471 32.5 904.471V904.471C31.4442 904.471 30.5883 903.615 30.5883 902.559V902.559Z" fill="white"/>
<path d="M45.8823 902.559C45.8823 901.503 46.7383 900.647 47.7941 900.647V900.647C48.8499 900.647 49.7059 901.503 49.7059 902.559V902.559C49.7059 903.615 48.8499 904.471 47.7941 904.471V904.471C46.7383 904.471 45.8823 903.615 45.8823 902.559V902.559Z" fill="white"/>
<path d="M61.1765 902.559C61.1765 901.503 62.0324 900.647 63.0882 900.647V900.647C64.1441 900.647 65 901.503 65 902.559V902.559C65 903.615 64.1441 904.471 63.0882 904.471V904.471C62.0324 904.471 61.1765 903.615 61.1765 902.559V902.559Z" fill="white"/>
<path d="M0 917.853C0 916.797 0.855926 915.941 1.91176 915.941V915.941C2.9676 915.941 3.82353 916.797 3.82353 917.853V917.853C3.82353 918.909 2.9676 919.765 1.91176 919.765V919.765C0.855926 919.765 0 918.909 0 917.853V917.853Z" fill="white"/>
<path d="M15.2941 917.853C15.2941 916.797 16.15 915.941 17.2058 915.941V915.941C18.2617 915.941 19.1176 916.797 19.1176 917.853V917.853C19.1176 918.909 18.2617 919.765 17.2058 919.765V919.765C16.15 919.765 15.2941 918.909 15.2941 917.853V917.853Z" fill="white"/>
<path d="M30.5883 917.853C30.5883 916.797 31.4442 915.941 32.5 915.941V915.941C33.5559 915.941 34.4118 916.797 34.4118 917.853V917.853C34.4118 918.909 33.5559 919.765 32.5 919.765V919.765C31.4442 919.765 30.5883 918.909 30.5883 917.853V917.853Z" fill="white"/>
<path d="M45.8823 917.853C45.8823 916.797 46.7383 915.941 47.7941 915.941V915.941C48.8499 915.941 49.7059 916.797 49.7059 917.853V917.853C49.7059 918.909 48.8499 919.765 47.7941 919.765V919.765C46.7383 919.765 45.8823 918.909 45.8823 917.853V917.853Z" fill="white"/>
<path d="M61.1765 917.853C61.1765 916.797 62.0324 915.941 63.0882 915.941V915.941C64.1441 915.941 65 916.797 65 917.853V917.853C65 918.909 64.1441 919.765 63.0882 919.765V919.765C62.0324 919.765 61.1765 918.909 61.1765 917.853V917.853Z" fill="white"/>
<path d="M0 933.147C0 932.091 0.855926 931.235 1.91176 931.235V931.235C2.9676 931.235 3.82353 932.091 3.82353 933.147V933.147C3.82353 934.203 2.9676 935.059 1.91176 935.059V935.059C0.855926 935.059 0 934.203 0 933.147V933.147Z" fill="white"/>
<path d="M15.2941 933.147C15.2941 932.091 16.15 931.235 17.2058 931.235V931.235C18.2617 931.235 19.1176 932.091 19.1176 933.147V933.147C19.1176 934.203 18.2617 935.059 17.2058 935.059V935.059C16.15 935.059 15.2941 934.203 15.2941 933.147V933.147Z" fill="white"/>
<path d="M30.5883 933.147C30.5883 932.091 31.4442 931.235 32.5 931.235V931.235C33.5559 931.235 34.4118 932.091 34.4118 933.147V933.147C34.4118 934.203 33.5559 935.059 32.5 935.059V935.059C31.4442 935.059 30.5883 934.203 30.5883 933.147V933.147Z" fill="white"/>
<path d="M45.8823 933.147C45.8823 932.091 46.7383 931.235 47.7941 931.235V931.235C48.8499 931.235 49.7059 932.091 49.7059 933.147V933.147C49.7059 934.203 48.8499 935.059 47.7941 935.059V935.059C46.7383 935.059 45.8823 934.203 45.8823 933.147V933.147Z" fill="white"/>
<path d="M61.1765 933.147C61.1765 932.091 62.0324 931.235 63.0882 931.235V931.235C64.1441 931.235 65 932.091 65 933.147V933.147C65 934.203 64.1441 935.059 63.0882 935.059V935.059C62.0324 935.059 61.1765 934.203 61.1765 933.147V933.147Z" fill="white"/>
<path d="M0 948.441C0 947.385 0.855926 946.529 1.91176 946.529V946.529C2.9676 946.529 3.82353 947.385 3.82353 948.441V948.441C3.82353 949.497 2.9676 950.353 1.91176 950.353V950.353C0.855926 950.353 0 949.497 0 948.441V948.441Z" fill="white"/>
<path d="M15.2941 948.441C15.2941 947.385 16.15 946.529 17.2058 946.529V946.529C18.2617 946.529 19.1176 947.385 19.1176 948.441V948.441C19.1176 949.497 18.2617 950.353 17.2058 950.353V950.353C16.15 950.353 15.2941 949.497 15.2941 948.441V948.441Z" fill="white"/>
<path d="M30.5883 948.441C30.5883 947.385 31.4442 946.529 32.5 946.529V946.529C33.5559 946.529 34.4118 947.385 34.4118 948.441V948.441C34.4118 949.497 33.5559 950.353 32.5 950.353V950.353C31.4442 950.353 30.5883 949.497 30.5883 948.441V948.441Z" fill="white"/>
<path d="M45.8823 948.441C45.8823 947.385 46.7383 946.529 47.7941 946.529V946.529C48.8499 946.529 49.7059 947.385 49.7059 948.441V948.441C49.7059 949.497 48.8499 950.353 47.7941 950.353V950.353C46.7383 950.353 45.8823 949.497 45.8823 948.441V948.441Z" fill="white"/>
<path d="M61.1765 948.441C61.1765 947.385 62.0324 946.529 63.0882 946.529V946.529C64.1441 946.529 65 947.385 65 948.441V948.441C65 949.497 64.1441 950.353 63.0882 950.353V950.353C62.0324 950.353 61.1765 949.497 61.1765 948.441V948.441Z" fill="white"/>
</g>
<g opacity="0.6">
<g filter="url(#filter0_d_1_2)">
<path d="M316 966.573C316 897.538 371.964 841.573 441 841.573V841.573C510.036 841.573 566 897.538 566 966.573V966.573C566 1035.61 510.036 1091.57 441 1091.57V1091.57C371.964 1091.57 316 1035.61 316 966.573V966.573Z" fill="#469CF0"/>
<path d="M441 1084.07C376.107 1084.07 323.5 1031.47 323.5 966.573C323.5 901.68 376.107 849.073 441 849.073C505.893 849.073 558.5 901.68 558.5 966.573C558.5 1031.47 505.893 1084.07 441 1084.07Z" stroke="white" stroke-width="15"/>
</g>
<g filter="url(#filter1_d_1_2)">
<path d="M502 969.573C502 1002.71 475.137 1029.57 442 1029.57V1029.57C408.863 1029.57 382 1002.71 382 969.573V969.573C382 936.436 408.863 909.573 442 909.573V909.573C475.137 909.573 502 936.436 502 969.573V969.573Z" fill="url(#paint0_linear_1_2)"/>
</g>
<g filter="url(#filter2_d_1_2)">
<path d="M489.814 833.346C500.129 845.135 498.933 863.054 487.144 873.368V873.368C475.355 883.683 457.436 882.488 447.122 870.698V870.698C436.807 858.909 438.003 840.991 449.792 830.676V830.676C461.581 820.361 479.5 821.557 489.814 833.346V833.346Z" fill="url(#paint1_linear_1_2)"/>
</g>
</g>
<line opacity="0.6" x1="316.5" y1="478" x2="316.5" y2="812" stroke="#81C1FF"/>
<path opacity="0.6" d="M48.5619 838.283C57.3963 848.38 56.3724 863.728 46.275 872.562V872.562C36.1776 881.396 20.8303 880.372 11.996 870.275V870.275C3.16166 860.178 4.18558 844.83 14.283 835.996V835.996C24.3804 827.162 39.7276 828.186 48.5619 838.283V838.283Z" fill="url(#paint2_linear_1_2)"/>
<path opacity="0.6" d="M185 103C185 115.703 174.703 126 162 126V126C149.297 126 139 115.703 139 103L139 -3.60255e-06L185 0L185 103Z" fill="url(#paint3_linear_1_2)"/>
<path opacity="0.6" d="M289 141C289 158.121 275.121 172 258 172V172C240.879 172 227 158.121 227 141L227 -4.85561e-06L289 0L289 141Z" fill="url(#paint4_linear_1_2)"/>
<path opacity="0.6" d="M593 16.5C593 25.6127 585.613 33 576.5 33V33C567.387 33 560 25.6127 560 16.5V16.5C560 7.3873 567.387 1.57556e-06 576.5 2.37222e-06V2.37222e-06C585.613 3.16888e-06 593 7.3873 593 16.5V16.5Z" fill="url(#paint5_linear_1_2)"/>
<defs>
<filter id="filter0_d_1_2" x="301" y="831.573" width="280" height="280" filterUnits="userSpaceOnUse" color-interpolation-filters="sRGB">
<feFlood flood-opacity="0" result="BackgroundImageFix"/>
<feColorMatrix in="SourceAlpha" type="matrix" values="0 0 0 0 0 0 0 0 0 0 0 0 0 0 0 0 0 0 127 0" result="hardAlpha"/>
<feOffset dy="5"/>
<feGaussianBlur stdDeviation="7.5"/>
<feComposite in2="hardAlpha" operator="out"/>
<feColorMatrix type="matrix" values="0 0 0 0 0 0 0 0 0 0 0 0 0 0 0 0 0 0 0.53 0"/>
<feBlend mode="normal" in2="BackgroundImageFix" result="effect1_dropShadow_1_2"/>
<feBlend mode="normal" in="SourceGraphic" in2="effect1_dropShadow_1_2" result="shape"/>
</filter>
<filter id="filter1_d_1_2" x="372" y="907.573" width="140" height="140" filterUnits="userSpaceOnUse" color-interpolation-filters="sRGB">
<feFlood flood-opacity="0" result="BackgroundImageFix"/>
<feColorMatrix in="SourceAlpha" type="matrix" values="0 0 0 0 0 0 0 0 0 0 0 0 0 0 0 0 0 0 127 0" result="hardAlpha"/>
<feOffset dy="8"/>
<feGaussianBlur stdDeviation="5"/>
<feComposite in2="hardAlpha" operator="out"/>
<feColorMatrix type="matrix" values="0 0 0 0 0 0 0 0 0 0 0 0 0 0 0 0 0 0 0.25 0"/>
<feBlend mode="normal" in2="BackgroundImageFix" result="effect1_dropShadow_1_2"/>
<feBlend mode="normal" in="SourceGraphic" in2="effect1_dropShadow_1_2" result="shape"/>
</filter>
<filter id="filter2_d_1_2" x="430.105" y="821.659" width="76.7267" height="76.7266" filterUnits="userSpaceOnUse" color-interpolation-filters="sRGB">
<feFlood flood-opacity="0" result="BackgroundImageFix"/>
<feColorMatrix in="SourceAlpha" type="matrix" values="0 0 0 0 0 0 0 0 0 0 0 0 0 0 0 0 0 0 127 0" result="hardAlpha"/>
<feOffset dy="8"/>
<feGaussianBlur stdDeviation="5"/>
<feComposite in2="hardAlpha" operator="out"/>
<feColorMatrix type="matrix" values="0 0 0 0 0 0 0 0 0 0 0 0 0 0 0 0 0 0 0.25 0"/>
<feBlend mode="normal" in2="BackgroundImageFix" result="effect1_dropShadow_1_2"/>
<feBlend mode="normal" in="SourceGraphic" in2="effect1_dropShadow_1_2" result="shape"/>
</filter>
<linearGradient id="paint0_linear_1_2" x1="442" y1="1029.57" x2="442" y2="920.514" gradientUnits="userSpaceOnUse">
<stop stop-color="#B7DBFF"/>
<stop offset="0.0001" stop-color="#4FA6FC"/>
<stop offset="1" stop-color="#CEE7FF"/>
</linearGradient>
<linearGradient id="paint1_linear_1_2" x1="487.144" y1="873.368" x2="453.198" y2="834.569" gradientUnits="userSpaceOnUse">
<stop stop-color="#B7DBFF"/>
<stop offset="0.0001" stop-color="#4FA6FC"/>
<stop offset="1" stop-color="#CEE7FF"/>
</linearGradient>
<linearGradient id="paint2_linear_1_2" x1="46.275" y1="872.562" x2="17.1999" y2="839.33" gradientUnits="userSpaceOnUse">
<stop stop-color="#B7DBFF"/>
<stop offset="0.0001" stop-color="#4FA6FC"/>
<stop offset="1" stop-color="#CEE7FF"/>
</linearGradient>
<linearGradient id="paint3_linear_1_2" x1="162" y1="126" x2="162" y2="11.4882" gradientUnits="userSpaceOnUse">
<stop stop-color="#A2D1FF"/>
<stop offset="0.229167" stop-color="#AFD3F6" stop-opacity="0.755208"/>
<stop offset="1" stop-color="white" stop-opacity="0"/>
</linearGradient>
<linearGradient id="paint4_linear_1_2" x1="258" y1="172" x2="258" y2="15.6824" gradientUnits="userSpaceOnUse">
<stop stop-color="#A2D1FF"/>
<stop offset="0.229167" stop-color="#AFD3F6" stop-opacity="0.755208"/>
<stop offset="1" stop-color="white" stop-opacity="0"/>
</linearGradient>
<linearGradient id="paint5_linear_1_2" x1="576.5" y1="33" x2="576.5" y2="3.00883" gradientUnits="userSpaceOnUse">
<stop stop-color="#A2D1FF"/>
<stop offset="0.229167" stop-color="#AFD3F6" stop-opacity="0.755208"/>
<stop offset="1" stop-color="white" stop-opacity="0"/>
</linearGradient>
</defs>
</svg>
